<mxfile host="65bd71144e">
    <diagram id="HIP3nbAZw_EuaXWnEj3U" name="Page-1">
        <mxGraphModel dx="2128" dy="1384" grid="1" gridSize="10" guides="1" tooltips="1" connect="1" arrows="1" fold="1" page="1" pageScale="1" pageWidth="850" pageHeight="1100" math="0" shadow="0">
            <root>
                <mxCell id="0"/>
                <mxCell id="1" parent="0"/>
                <mxCell id="5" value="" style="shape=image;verticalLabelPosition=bottom;labelBackgroundColor=default;verticalAlign=top;aspect=fixed;imageAspect=0;image=data:image/png,iVBORw0KGgoAAAANSUhEUgAAASkAAAG6CAYAAABUa7BvAAAAAXNSR0IArs4c6QAAF4d0RVh0bXhmaWxlACUzQ214ZmlsZSUzRSUwQSUyMCUyMCUzQ2RpYWdyYW0lMjBpZCUzRCUyMkhJUDNuYkFad19FdWFYV25FajNVJTIyJTIwbmFtZSUzRCUyMlBhZ2UtMSUyMiUzRSUwQSUyMCUyMCUyMCUyMCUzQ214R3JhcGhNb2RlbCUyMGR4JTNEJTIyMTA4NiUyMiUyMGR5JTNEJTIyNjU4JTIyJTIwZ3JpZCUzRCUyMjElMjIlMjBncmlkU2l6ZSUzRCUyMjEwJTIyJTIwZ3VpZGVzJTNEJTIyMSUyMiUyMHRvb2x0aXBzJTNEJTIyMSUyMiUyMGNvbm5lY3QlM0QlMjIxJTIyJTIwYXJyb3dzJTNEJTIyMSUyMiUyMGZvbGQlM0QlMjIxJTIyJTIwcGFnZSUzRCUyMjElMjIlMjBwYWdlU2NhbGUlM0QlMjIxJTIyJTIwcGFnZVdpZHRoJTNEJTIyODUwJTIyJTIwcGFnZUhlaWdodCUzRCUyMjExMDAlMjIlMjBtYXRoJTNEJTIyMCUyMiUyMHNoYWRvdyUzRCUyMjAlMjIlM0UlMEElMjAlMjAlMjAlMjAlMjAlMjAlM0Nyb290JTNFJTBBJTIwJTIwJTIwJTIwJTIwJTIwJTIwJTIwJTNDbXhDZWxsJTIwaWQlM0QlMjIwJTIyJTIwJTJGJTNFJTBBJTIwJTIwJTIwJTIwJTIwJTIwJTIwJTIwJTNDbXhDZWxsJTIwaWQlM0QlMjIxJTIyJTIwcGFyZW50JTNEJTIyMCUyMiUyMCUyRiUzRSUwQSUyMCUyMCUyMCUyMCUyMCUyMCUyMCUyMCUzQ214Q2VsbCUyMGlkJTNEJTIyNCUyMiUyMHZhbHVlJTNEJTIyU3RhcnQlMjIlMjBzdHlsZSUzRCUyMnN0cm9rZVdpZHRoJTNEMiUzQmh0bWwlM0QxJTNCc2hhcGUlM0RteGdyYXBoLmZsb3djaGFydC50ZXJtaW5hdG9yJTNCd2hpdGVTcGFjZSUzRHdyYXAlM0IlMjIlMjB2ZXJ0ZXglM0QlMjIxJTIyJTIwcGFyZW50JTNEJTIyMSUyMiUzRSUwQSUyMCUyMCUyMCUyMCUyMCUyMCUyMCUyMCUyMCUyMCUzQ214R2VvbWV0cnklMjB4JTNEJTIyMjY3LjUlMjIlMjB5JTNEJTIyMTYwJTIyJTIwd2lkdGglM0QlMjIxMDAlMjIlMjBoZWlnaHQlM0QlMjI2MCUyMiUyMGFzJTNEJTIyZ2VvbWV0cnklMjIlMjAlMkYlM0UlMEElMjAlMjAlMjAlMjAlMjAlMjAlMjAlMjAlM0MlMkZteENlbGwlM0UlMEElMjAlMjAlMjAlMjAlMjAlMjAlMjAlMjAlM0NteENlbGwlMjBpZCUzRCUyMjUlMjIlMjB2YWx1ZSUzRCUyMlN0b3AlMjIlMjBzdHlsZSUzRCUyMnN0cm9rZVdpZHRoJTNEMiUzQmh0bWwlM0QxJTNCc2hhcGUlM0RteGdyYXBoLmZsb3djaGFydC50ZXJtaW5hdG9yJTNCd2hpdGVTcGFjZSUzRHdyYXAlM0IlMjIlMjB2ZXJ0ZXglM0QlMjIxJTIyJTIwcGFyZW50JTNEJTIyMSUyMiUzRSUwQSUyMCUyMCUyMCUyMCUyMCUyMCUyMCUyMCUyMCUyMCUzQ214R2VvbWV0cnklMjB4JTNEJTIyMjY3LjUlMjIlMjB5JTNEJTIyNTQwJTIyJTIwd2lkdGglM0QlMjIxMDAlMjIlMjBoZWlnaHQlM0QlMjI2MCUyMiUyMGFzJTNEJTIyZ2VvbWV0cnklMjIlMjAlMkYlM0UlMEElMjAlMjAlMjAlMjAlMjAlMjAlMjAlMjAlM0MlMkZteENlbGwlM0UlMEElMjAlMjAlMjAlMjAlMjAlMjAlMjAlMjAlM0NteENlbGwlMjBpZCUzRCUyMjYlMjIlMjBzdHlsZSUzRCUyMmVkZ2VTdHlsZSUzRGVsYm93RWRnZVN0eWxlJTNCc2hhcGUlM0Rjb25uZWN0b3IlM0Jyb3VuZGVkJTNEMCUzQmVsYm93JTNEdmVydGljYWwlM0JodG1sJTNEMSUzQmV4aXRYJTNEMC41JTNCZXhpdFklM0QxJTNCZXhpdER4JTNEMCUzQmV4aXREeSUzRDAlM0JlbnRyeVglM0QwLjU4NyUzQmVudHJ5WSUzRDAuMDM1JTNCZW50cnlEeCUzRDAlM0JlbnRyeUR5JTNEMCUzQnN0cm9rZUNvbG9yJTNEZGVmYXVsdCUzQmFsaWduJTNEY2VudGVyJTNCdmVydGljYWxBbGlnbiUzRG1pZGRsZSUzQmZvbnRGYW1pbHklM0RIZWx2ZXRpY2ElM0Jmb250U2l6ZSUzRDExJTNCZm9udENvbG9yJTNEZGVmYXVsdCUzQmxhYmVsQmFja2dyb3VuZENvbG9yJTNEZGVmYXVsdCUzQmVuZEFycm93JTNEY2xhc3NpYyUzQmVudHJ5UGVyaW1ldGVyJTNEMCUzQiUyMiUyMGVkZ2UlM0QlMjIxJTIyJTIwcGFyZW50JTNEJTIyMSUyMiUyMHNvdXJjZSUzRCUyMjclMjIlM0UlMEElMjAlMjAlMjAlMjAlMjAlMjAlMjAlMjAlMjAlMjAlM0NteEdlb21ldHJ5JTIwcmVsYXRpdmUlM0QlMjIxJTIyJTIwYXMlM0QlMjJnZW9tZXRyeSUyMiUzRSUwQSUyMCUyMCUyMCUyMCUyMCUyMCUyMCUyMCUyMCUyMCUyMCUyMCUzQ214UG9pbnQlMjB4JTNEJTIyMzE3Ljk0MDAwMDAwMDAwMDA1JTIyJTIweSUzRCUyMjM2Mi4xJTIyJTIwYXMlM0QlMjJ0YXJnZXRQb2ludCUyMiUyMCUyRiUzRSUwQSUyMCUyMCUyMCUyMCUyMCUyMCUyMCUyMCUyMCUyMCUzQyUyRm14R2VvbWV0cnklM0UlMEElMjAlMjAlMjAlMjAlMjAlMjAlMjAlMjAlM0MlMkZteENlbGwlM0UlMEElMjAlMjAlMjAlMjAlMjAlMjAlMjAlMjAlM0NteENlbGwlMjBpZCUzRCUyMjclMjIlMjB2YWx1ZSUzRCUyMiUyNmx0JTNCZGl2JTI2Z3QlM0IlMjZsdCUzQnNwYW4lMjBzdHlsZSUzRCUyNnF1b3QlM0JiYWNrZ3JvdW5kLWNvbG9yJTNBJTIwdHJhbnNwYXJlbnQlM0IlMjZxdW90JTNCJTI2Z3QlM0JFbnRlciUyMHRoZSUyMHJhZGl1cyUyNmx0JTNCJTJGc3BhbiUyNmd0JTNCJTI2bHQlM0IlMkZkaXYlMjZndCUzQiUyMiUyMHN0eWxlJTNEJTIyc2hhcGUlM0RwYXJhbGxlbG9ncmFtJTNCaHRtbCUzRDElM0JzdHJva2VXaWR0aCUzRDIlM0JwZXJpbWV0ZXIlM0RwYXJhbGxlbG9ncmFtUGVyaW1ldGVyJTNCd2hpdGVTcGFjZSUzRHdyYXAlM0Jyb3VuZGVkJTNEMSUzQmFyY1NpemUlM0QxMiUzQnNpemUlM0QwLjIzJTNCJTIyJTIwdmVydGV4JTNEJTIyMSUyMiUyMHBhcmVudCUzRCUyMjElMjIlM0UlMEElMjAlMjAlMjAlMjAlMjAlMjAlMjAlMjAlMjAlMjAlM0NteEdlb21ldHJ5JTIweCUzRCUyMjI1Ny41JTIyJTIweSUzRCUyMjI1MCUyMiUyMHdpZHRoJTNEJTIyMTIwJTIyJTIwaGVpZ2h0JTNEJTIyNjAlMjIlMjBhcyUzRCUyMmdlb21ldHJ5JTIyJTIwJTJGJTNFJTBBJTIwJTIwJTIwJTIwJTIwJTIwJTIwJTIwJTNDJTJGbXhDZWxsJTNFJTBBJTIwJTIwJTIwJTIwJTIwJTIwJTIwJTIwJTNDbXhDZWxsJTIwaWQlM0QlMjI4JTIyJTIwc3R5bGUlM0QlMjJlZGdlU3R5bGUlM0RlbGJvd0VkZ2VTdHlsZSUzQmh0bWwlM0QxJTNCZXhpdFglM0QwLjUlM0JleGl0WSUzRDElM0JleGl0RHglM0QwJTNCZXhpdER5JTNEMCUzQmV4aXRQZXJpbWV0ZXIlM0QwJTNCZW50cnlYJTNEMC41JTNCZW50cnlZJTNEMCUzQmVudHJ5RHglM0QwJTNCZW50cnlEeSUzRDAlM0Jyb3VuZGVkJTNEMCUzQmVsYm93JTNEdmVydGljYWwlM0IlMjIlMjBlZGdlJTNEJTIyMSUyMiUyMHBhcmVudCUzRCUyMjElMjIlMjBzb3VyY2UlM0QlMjI0JTIyJTIwdGFyZ2V0JTNEJTIyNyUyMiUzRSUwQSUyMCUyMCUyMCUyMCUyMCUyMCUyMCUyMCUyMCUyMCUzQ214R2VvbWV0cnklMjByZWxhdGl2ZSUzRCUyMjElMjIlMjBhcyUzRCUyMmdlb21ldHJ5JTIyJTIwJTJGJTNFJTBBJTIwJTIwJTIwJTIwJTIwJTIwJTIwJTIwJTNDJTJGbXhDZWxsJTNFJTBBJTIwJTIwJTIwJTIwJTIwJTIwJTIwJTIwJTNDbXhDZWxsJTIwaWQlM0QlMjI5JTIyJTIwc3R5bGUlM0QlMjJlZGdlU3R5bGUlM0RlbGJvd0VkZ2VTdHlsZSUzQnNoYXBlJTNEY29ubmVjdG9yJTNCcm91bmRlZCUzRDAlM0JlbGJvdyUzRHZlcnRpY2FsJTNCaHRtbCUzRDElM0JleGl0WCUzRDAuNSUzQmV4aXRZJTNEMSUzQmV4aXREeCUzRDAlM0JleGl0RHklM0QwJTNCZW50cnlYJTNEMC41JTNCZW50cnlZJTNEMCUzQmVudHJ5RHglM0QwJTNCZW50cnlEeSUzRDAlM0JzdHJva2VDb2xvciUzRGRlZmF1bHQlM0JhbGlnbiUzRGNlbnRlciUzQnZlcnRpY2FsQWxpZ24lM0RtaWRkbGUlM0Jmb250RmFtaWx5JTNESGVsdmV0aWNhJTNCZm9udFNpemUlM0QxMSUzQmZvbnRDb2xvciUzRGRlZmF1bHQlM0JsYWJlbEJhY2tncm91bmRDb2xvciUzRGRlZmF1bHQlM0JlbmRBcnJvdyUzRGNsYXNzaWMlM0IlMjIlMjBlZGdlJTNEJTIyMSUyMiUyMHBhcmVudCUzRCUyMjElMjIlMjBzb3VyY2UlM0QlMjIxMCUyMiUyMHRhcmdldCUzRCUyMjExJTIyJTNFJTBBJTIwJTIwJTIwJTIwJTIwJTIwJTIwJTIwJTIwJTIwJTNDbXhHZW9tZXRyeSUyMHJlbGF0aXZlJTNEJTIyMSUyMiUyMGFzJTNEJTIyZ2VvbWV0cnklMjIlMjAlMkYlM0UlMEElMjAlMjAlMjAlMjAlMjAlMjAlMjAlMjAlM0MlMkZteENlbGwlM0UlMEElMjAlMjAlMjAlMjAlMjAlMjAlMjAlMjAlM0NteENlbGwlMjBpZCUzRCUyMjEwJTIyJTIwdmFsdWUlM0QlMjJ2b2x1bWUlMjAlM0QlMjA0JTJGMyUyMColMjZhbXAlM0JuYnNwJTNCTWF0aC5QSSUyMColMjByYWRpdXMlMjAqKiUyMDMlMjIlMjBzdHlsZSUzRCUyMnJvdW5kZWQlM0QxJTNCd2hpdGVTcGFjZSUzRHdyYXAlM0JodG1sJTNEMSUzQmFic29sdXRlQXJjU2l6ZSUzRDElM0JhcmNTaXplJTNEMTQlM0JzdHJva2VXaWR0aCUzRDIlM0Jmb250RmFtaWx5JTNESGVsdmV0aWNhJTNCZm9udFNpemUlM0QxMSUzQmZvbnRDb2xvciUzRGRlZmF1bHQlM0JsYWJlbEJhY2tncm91bmRDb2xvciUzRGRlZmF1bHQlM0IlMjIlMjB2ZXJ0ZXglM0QlMjIxJTIyJTIwcGFyZW50JTNEJTIyMSUyMiUzRSUwQSUyMCUyMCUyMCUyMCUyMCUyMCUyMCUyMCUyMCUyMCUzQ214R2VvbWV0cnklMjB4JTNEJTIyMjI3LjUlMjIlMjB5JTNEJTIyMzYwJTIyJTIwd2lkdGglM0QlMjIxODAlMjIlMjBoZWlnaHQlM0QlMjI0MCUyMiUyMGFzJTNEJTIyZ2VvbWV0cnklMjIlMjAlMkYlM0UlMEElMjAlMjAlMjAlMjAlMjAlMjAlMjAlMjAlM0MlMkZteENlbGwlM0UlMEElMjAlMjAlMjAlMjAlMjAlMjAlMjAlMjAlM0NteENlbGwlMjBpZCUzRCUyMjExJTIyJTIwdmFsdWUlM0QlMjJ2b2x1bWUlMjBpcyUzQSUyMCUyNnF1b3QlM0IlMjAlMkIlMjB2b2x1bWUudG9GaXhlZCgzKSUyMCUyQiUyNmFtcCUzQm5ic3AlM0IlMjBtbSVDMiVCMyUyMiUyMHN0eWxlJTNEJTIyc2hhcGUlM0RwYXJhbGxlbG9ncmFtJTNCaHRtbCUzRDElM0JzdHJva2VXaWR0aCUzRDIlM0JwZXJpbWV0ZXIlM0RwYXJhbGxlbG9ncmFtUGVyaW1ldGVyJTNCd2hpdGVTcGFjZSUzRHdyYXAlM0Jyb3VuZGVkJTNEMSUzQmFyY1NpemUlM0QxMiUzQnNpemUlM0QwLjIzJTNCJTIyJTIwdmVydGV4JTNEJTIyMSUyMiUyMHBhcmVudCUzRCUyMjElMjIlM0UlMEElMjAlMjAlMjAlMjAlMjAlMjAlMjAlMjAlMjAlMjAlM0NteEdlb21ldHJ5JTIweCUzRCUyMjE3MCUyMiUyMHklM0QlMjI0NTAlMjIlMjB3aWR0aCUzRCUyMjI5NSUyMiUyMGhlaWdodCUzRCUyMjYwJTIyJTIwYXMlM0QlMjJnZW9tZXRyeSUyMiUyMCUyRiUzRSUwQSUyMCUyMCUyMCUyMCUyMCUyMCUyMCUyMCUzQyUyRm14Q2VsbCUzRSUwQSUyMCUyMCUyMCUyMCUyMCUyMCUyMCUyMCUzQ214Q2VsbCUyMGlkJTNEJTIyMTIlMjIlMjBzdHlsZSUzRCUyMmVkZ2VTdHlsZSUzRGVsYm93RWRnZVN0eWxlJTNCc2hhcGUlM0Rjb25uZWN0b3IlM0Jyb3VuZGVkJTNEMCUzQmVsYm93JTNEdmVydGljYWwlM0JodG1sJTNEMSUzQmV4aXRYJTNEMC41JTNCZXhpdFklM0QxJTNCZXhpdER4JTNEMCUzQmV4aXREeSUzRDAlM0JlbnRyeVglM0QwLjUlM0JlbnRyeVklM0QwJTNCZW50cnlEeCUzRDAlM0JlbnRyeUR5JTNEMCUzQmVudHJ5UGVyaW1ldGVyJTNEMCUzQnN0cm9rZUNvbG9yJTNEZGVmYXVsdCUzQmFsaWduJTNEY2VudGVyJTNCdmVydGljYWxBbGlnbiUzRG1pZGRsZSUzQmZvbnRGYW1pbHklM0RIZWx2ZXRpY2ElM0Jmb250U2l6ZSUzRDExJTNCZm9udENvbG9yJTNEZGVmYXVsdCUzQmxhYmVsQmFja2dyb3VuZENvbG9yJTNEZGVmYXVsdCUzQmVuZEFycm93JTNEY2xhc3NpYyUzQiUyMiUyMGVkZ2UlM0QlMjIxJTIyJTIwcGFyZW50JTNEJTIyMSUyMiUyMHNvdXJjZSUzRCUyMjExJTIyJTIwdGFyZ2V0JTNEJTIyNSUyMiUzRSUwQSUyMCUyMCUyMCUyMCUyMCUyMCUyMCUyMCUyMCUyMCUzQ214R2VvbWV0cnklMjByZWxhdGl2ZSUzRCUyMjElMjIlMjBhcyUzRCUyMmdlb21ldHJ5JTIyJTIwJTJGJTNFJTBBJTIwJTIwJTIwJTIwJTIwJTIwJTIwJTIwJTNDJTJGbXhDZWxsJTNFJTBBJTIwJTIwJTIwJTIwJTIwJTIwJTNDJTJGcm9vdCUzRSUwQSUyMCUyMCUyMCUyMCUzQyUyRm14R3JhcGhNb2RlbCUzRSUwQSUyMCUyMCUzQyUyRmRpYWdyYW0lM0UlMEElM0MlMkZteGZpbGUlM0UlMEGMTs78AAAgAElEQVR4Xu1dCbxNVft+zkWGf4bky1T5Cmk2hYQMSSVjpTIU32eM4kMhJIVMIfMQRaYKIUMDQpMPaU4Z0ohEhmTmnP95lrPvt53uvc49Z+991t77Xb/f+V3u3ftd7/u8az/nXWuv9b4BSPMjAkUAFI76BDQFIghgdxofTdUVtaxGQNeBabWdfpaXF0DdyKdWhJjc7vdQhLTeA7A88jnkZyd72Xa3D1Yv+yYR20qaiKlOtKCCBQuicOHCqZ8iRYoga9asifRn272nT5/G7t271WfXrl3q5549e9Lq710TYW2zTSER7DgCQlKOQ25rh6UA9ALQytxL7dq1UbduXfUpUaIEsmTJYqsSdgs/c+YMtm/fjuXLl6vPypUro7ucDmAIgC126yLy7UdASMp+jJ3ooVCEnLoYnTVt2jSVmPLnz++EDknrY//+/amENXfuXLMeoyNk9VvSlJOOE0ZASCphCJMu4NlAINArFAployatW7dGr169VMTkx8YIa8iQIZg2bZoyPxAInAqFQoyq+vkRDy/YLCTlXi9eBYDTmso0oUmTJujZsyfKly/vXoss1PzTTz9VZDVv3jxD6rrINHirhd2IKAcQEJJyAGQbuqgXCARmhEKh/KVLl8aoUaNQs2ZNG7pxv8jVq1eja9eu+OKLLxhV7Q+FQi0BLHW/Zf6xQEjKfb7uBmCEET1Nnz4duXLlcp8VDmp89OhRtGrVyhxVdQcw0kEVpKsEEBCSSgC8JNw6Kbw/qD377dOnDwYOHJgEFdzbJTF77rnnDAMmA+jgXmv8o7mQlHt8PQBAX6rL6KllS85apGUWgRkzZqioKtLI8k9lVoZc7ywCQlLO4h1vb20BTOHNCxcuRKNGjeKVI/cBWLRoERo3bmxgQWynCjD6IiAkpa9vDM24Y/wd/mf06NHo3Lmz/hq7QMMxY8agS5fUbWXEeIUL1PalikJSeru9VCAQ+DAUChXo1q0bRoxQ6+XSLEKge/fuGDlyJN/67QuFQlVlh7pFwFosRkjKYkAtFrcGQPV7770X8+fPt1i0iCMC9913HxYsWMB/rgVQQ1DRDwEhKf18YmjUAsDMSy+9VJ1Ty549u76aulizEydOqN35v/76K614CMAsF5vjSdWFpDR1a0pKytZgMFhy0qRJaN9e7TqQZhMCkydPRocOHZCSkrItGAxyJ780jRAQktLIGSZVngAwrEKFCtiwYYOeGnpMq4oVK2Ljxo20qgeA4R4zz9XmCEnp576LUlJSfgoGg7n5qrxhw4b6aehBjRYvXqy2dqSkpBwOBoPFABzwoJmuNElISj+3DeW3ef369fHmm2/qp52HNWrQoAGWLFlCC4cB6OlhU11lmpCUfu76FsDVPBhbo4a8bHLSPWvWrDEOan8H4Bon+5a+0kdASEqv0VEGwGdM7ctUudKcR4CplJmiGEBZAJ87r4H0GI2AkJReY4KJ2Z5p164d+MZJmvMI8E3qlCnqBBJ9wfOS0pKMgJBUkh0Q1T1fL93EdZF69erppZlPtFm6dCm4HgjgEwAVfGK21mYKSenjHlZ42Zo7d278+eef+mjlQ03y5MmDw4cP03L6ZLsPIdDKZCEpfdzRmqfxmzVrhtmzZ+ujlQ81ad68OebMmUPL2wA4myxdWtIQEJJKGvR/65h5jZ7VNZndRx99hLFjx+LgwYNgdZYrr7wSbdq0ActlsVWvXh1r1/L4W+ZavPdlrpfMXd23b18MGjSIN8m6VOags+VqISlbYI1L6ERmihw/fjw6duwYlwA7byIprVixAsWLF0cwGFSJ95jq5IcffkCBAgXUZ9++fZlWId77Mt1RJm6YMGECOnXqxDuYCfWRTNwql9qAgJCUDaDGKXIxgAY6JrXjIVzmUWcRzrQKPrCMFkmrVq1a6icrtUydOlVVGuZ2CqaYIcmxGALfnrF4xLfffouSJUuec1/RokXjhM7a20xJ8bibVrb8WwtvpqUJSWUaMttuUG/21q9fD54j062NGzcOPXr0UBtM69Spo1KcMEMDGyOoYsWK4ciRIzh+/Diuv/56fPXVV8iRIwcee+wxhEIhMEL8+uuvFclxKsWpIqeNxn062cvzkpUqVaJK8oZPA8cISWnghIgKO8Mpgov88ssvqQ+/Pqqd1YSRESM9vqbnYVym4CX5HDhwIF2yee211/DKK69g2bJliqSqVq2q1rWiyU0nW5m25bLLLqNK3FGrR3inE0AO6yIk5TDgGXQXZMHdM2fO8JCrPlqlowm3SVSpUkVVX6lcuXIqSZ06dQrMIkoSYyR16NAhFCpUCG+99ZYiKe5B4jqWziTFNbcsWbJQxVD4ZYb+ztB+tCSmoJBUYvhZebe2kRSJh9HFFVdccY69devWBbOGMlODMW3j9omZM2eqGnfc88XqLK+++moqSfEQ744dO7QmKYmkrBzWicsSkkocQ6skaLsmRVIhEU2cOFFN19hIQm3btsW6devU9JRv6ViEkwvnPKhLojp58iS4qM6zcFx0ZyRlJilumDTui0QuVmGZkBxZk0oIPstvFpKyHNK4BWr7do8WrVq1Sp0n5JpZ1qxZkT9/fjz++OOoVq2aMpjkc+zYMfTv3x88e8gpXr58+cA9R3zrx1Ln99xzzzkkZb6PbwBvvPHGuMGz8kZ5u2clmonLEpJKHEOrJGi9T8oqI90gR/ZJ6eUlISl9/KH1jnN9YLJfE9lxbj/GmelBSCozaNl7rZzdsxffmKXL2b2YoXLkQiEpR2COqZMSALZJFoSYsLL1IlMWBFaO2WZrZyL8vAgISZ0XIkcvkHxSjsL9984kn1SSHZBG90JSevlErUtJZs7kOcWUmfNp+iJ5mkjPBgJCUnqNBclxnmR/SI7zJDtAIin9HJCGRlItJklukmoxSQL+PN1KJKWfX6TuXpJ8InX3kgS8kJSewGeglVQwToLLpIJxEkCPsUuJpGIEyuHLnmAV3QoVKoDnyKTZjwBzeDFzA6tHAxhuf4/SQ6wICEnFipTD16WkpGwNBoMlJ02apLJZSrMPAZ5J7NChA1PkbAsGg9wbJU0jBISkNHJGlCotAMxkhoHt27cje/bs+mrqYs2YGrlEiRIqFQ2AhwDMcrE5nlRdSEpvt65hIRbmbJo/f77emrpUO6ZBXrBgAbVnqZsaLjXD02oLSent3lKBQODDUChUgNkumc5EmnUIdO/eHSNHjkQgENgXCoWYKGuLddJFklUICElZhaR9cm4H8C7Fjx49Gp07d7avJx9JHjNmjCrJFWl3GBj7CALXmCok5Q5XsZLui1RVx5JX7oDwf1qaktrxl+0MbN1mh1/0FZJyj6cHAOhLdZmit2XLlu7RXCNNmXO9VatWhkYDAfC8pDSNERCS0tg5aajGirpqP0Lv3r2NUuDusiCJ2pqS2VGLyawYnUR1pOsYERCSihEojS7rBkCtoDdp0kRFVawuLC19BFgggtETi0dEWncAIwUzdyAgJOUOP0VrWS8QCMwIhUL5WbJ81KhRaZY/d6dp1mq9evVqVQSCJd4DgcD+UCjEefJSa3sRaXYiICRlJ7r2yubO6OkAKhtRVa9evVCuXDl7e3WJ9E2bNmHo0KHm6GkdAC5GbXWJCaJmBAEhKfcPhWcDgUCvUCiUjaawzh3Jiruo/di4O3/IkCGYNm2aMj8QCJwKhUJDAPTzIx5esFlIygteBAoB6AUgdeNP06ZNwQrD/LBGnpfb/v37sXz5cvWZO3eu2dTRAEhQv3nZfq/bJiTlLQ+XipBV6jt2mle7du1UwmKEpVO14HjgP3PmjDrPaBATqyNHNU6DSU6ygzwegDW7R0hKM4dYpE5JAHUjnzrRMgsWLIjChQuDqXL5kx9WJdaxnT59Grt27VKl2o3Pnj170lKVu/KXRz5S4UVHZ8apk5BUnMC56La8JsKqFd4fVJhLNS7SPy1VQ+H9YrsBvGcipkMut0nUTwcBtw9WcWx8CJCooj8p8Yn6211GJgFmcLCiGYREUjI+u6wQLDLcgYCQlDv85CYt+0eUNX66SXfRVUMEhKQ0dIrLVRKScrkDdVNfSEo3j7hfHyEp9/tQKwuEpLRyhyeUEZLyhBv1MUJISh9feEUTISmveFITO4SkNHGEh9QQkvKQM3UwRUhKBy94SwchKW/5M+nWCEkl3QWeU0BIynMuTa5BQlLJxd+LvQtJedGrSbRJSCqJ4Hu0ayEpjzo2WWYJSSULee/2KyTlXd8mxTIhqaTA7ulOhaQ87V7njROSch5zr/coJOV1Dztsn5CUw4D7oLvVERtr+sBWMdEBBISkHADZZ11IJOUzh9ttrpCU3Qj7T76QlP98bqvFQlK2wutL4UJSvnS7fUYLSdmHrV8lC0n51fM22S0kZROwPhYrJOVj59thupCUHaj6T2ZRADsjZkeTlPlv/kNGLE4YASGphCH0vYDcADYC+BlA30hlGoLC8lIDAVwOoAKAw75HSgCICwEhqbhgk5uiEBgMoFu4MOlxAPsjf2PZ5BwARgJ4UhATBOJFQEgqXuTkPjMCjKb2AsgeISqOK/77BIB/SBQlgyURBISkEkFP7jUjwGiqO4BskV+eAjBCoigZJIkiICSVKIJyv4GAOZri7ySKkrFhCQJCUpbAKEIiCBjRFP8rUZQMC0sQEJKyBEYREkGA0dS+yL8LyFqUjAsrEBCSsgJFvWWUBHADgBsdUrN+pJ8lDvXnZDe/AfgOwDbTvjAn+/dlX0JS3nR7cQDDU1JSqgaDQb5dk2Y9AtPD2y06S7RoPbDREoWk7MfY6R4ah6OmN9jpRRddhCuvvFJ9rrvuOqf18Fx/hw4dwq+//oqlS5fi2LFjtG8dgFs8Z6hmBglJaeaQBNV5C8CdlDF06FD06NEjQXFye1oIrF+/HjVr1gwdO3aMz08eiabsHSdCUvbi66T0xznFY4ffffcdSpUq5WTfvuurXLly+Oyzz2g3M5Cu8R0ADhosJOUg2DZ2VQ7A+vBZuayrV69GjRo1bOxKRP/444+44oorCMQRABcKIvYiICRlL75OSV8EoOFjjz2GMWPGONWnb/t55pln0L+/SvbwJnH3LRAOGS4k5RDQNnZTG8CK0qVL4/PPP7exGxFNBLh4XrZsWfzwww/87yMAJgky9iIgJGUvvk5InxXet9N85MiR6Nq1qxP9+boPRqpdunRRS38AykYOVPsaE7uNF5KyG2F75d/EXE6XX365WsTNn5/ZUaTZicBNN92ETZs2sYtefIlqZ18i+ywCQlLuHgnjwilSOvXt2xcDBgxwtyUu0H7WrFl46KGHqCl3njOK4k9pNiMgJGUzwDaKL5GSkvJFzpw5c3EtqkSJEjZ2JaKJwO23346VK1fyn0MkBY1zY0JIyjmsre6JqXn7dOzYEePHj7datsiLQmD58uW4++67EQgEjodCoTIAtghIziAgJOUMzlb38g9GUcFgsDB3P1esWNFq+SIvCoEHHngAr7/+On/Lt3l8qyfNIQSEpBwC2uJu1O7ypk2bYs6cORaLFnHRCPz3v/9F5cqVjV/fHNk4K0A5hICQlENAW9hNtkAg8HkoFLr2rbfewp13qqN60mxE4JFHHsGkSWo71KvhaV5TG7sS0WkgICTlvmHRBsCLd9xxB95++233ae8yjbdu3YoyZcoYWQ/4jfCOy0xwvbpCUu5z4YfhHeZVZs+ejWbNmrlPe5dp3KdPHzz33HPUmhkm6rpMfU+oKyTlLjc2AfB6hQoVsGHDBndp7kJt9+3bp6KonTtVceYHAbzmQjNcr7KQlLtcuDS8w/zucePGoVOnTu7S3IXajhgxAo8/zncUktwume4Tkkom+pnr+/ZwFsh3ixcvro7A5M7NmgfS7EIgGAyqKOqrr75iFx0ATLarL5GbMQJCUu4ZIbMBNHv22Wfx1FNPuUdrl2r68ssv49///je1/zZyBIZ1BKUlAQEhqSSAHkeXFcKLthuYs5xRVLFixeIQIbdkBgEmDly7di1v6QlgWGbulWutRUBIylo87ZLGcy8d//Of/2DUqFF29SFyIwgsXrwYjRo14hGY3yJHYPYIOMlDQEgqedjH2nPJQCDwRSgUyskoiusk0uxF4J577sHChQvZCSsy97a3N5F+PgSEpM6HUPL/PogPysMPP4wZM2YkXxuPa/DBBx/g1ltvZRR1LBJFbfW4ydqbJySlt4suiRyBKfzuu++iTp06aWobS/GF6tWrG2sscVtsyPj666/RoEED7NixI25ZidzI1DTcyLp582Z88sknIIHz31a0Nm3aYNq0aRQ1kVNsK2SKjMQQEJJKDD+7736Ci7b16tVT049s2bLhl19+waWXXprpfgsUKABuTkykGTJ0IqlE7Im+95tvvlHT6dOnT/NPlfiywkr5Iis+BISk4sPNibsuCFciYWG3a+fNm6cWcjMiqS+//BJt27ZV161atQp//fWXqmjCA8itW7fG9OnTUatWLfXz559/VpsUA4EALrnkErz44ou4+OKL8cUXX6B9+/ZgUYdvv/0W77//fqqdZhlPPvkkeOiWEQyjuMOHD2PgwIEqKRzbunXr0pRvBi2tvpYsWYKpU6diz549KFy4MLiZktWXVVgzcSKYx537xJjC94033vhbJMVsBe3atQOxYDP/nxWHuXVjy5YtOHPmDCpVqgRmNM2SJUuqWiymOny4Kl04l9s9nHCy9HF+BISkzo9Rsq5oC2DKLbfcgo8++kh9u2dEUoxumE6EDzLJiqlu+cCvWbNGRVDctnDkyBH8/vvvuP766/HOO++oqidTpkwBp5Lz588HZdSsWRODBg0Cpz0pKSmptptl8Do+5C+88EJqX5wikbAykm8GMrqvkydPKr24eTJHjhxgea5QKKQS+m3btg3VqlVTJEpSJTkyz3j0dC8jklqwYIHKB/Xaa2dPtgwbNgx33XUXbrjhBvX/3bt3qyiK+od59g5unE2W46XfcxEQktJ3RHwUflBumTx5sooODJKKVpdFKrk2xIe+atWq+OOPP1R0wIf93nvvBU/xmwmG5MXIjK/Z2Uhc+fLlU6f8WfmYMg4ePPg3VKJJKr2+MpKfNWvWVLmGvmn1xYtIJq+88gqWLVumIr333nsPc+cywIEiWFbGyQxJMe0voz9GSvXr1z8ngqLMIUOGgBEigOU8eqTvsPCfZkJSevr8fj6nV199taqllz179pgiKfNitnndyEwwjLS414qyze3VV19V0QQf4EhNuXP+Hk1S6fWVkXxOKY1G/cx9nTp1Ct26dcPGjRtVJMX6doUKFQJzZpFASMSM+tjMi+Xmf2cUSfG+FStWgKTPw9mMzDiFzJMnD06cOKGiKJJ0eIf5AzzEreew8KdWQlJ6+n0Z04IMHjwYvXqxchIsI6noSMdsfkYL4rGSVEbyM+qLqWdmzpypojyeS+R2CxInSSrWSIqE1apVKxVVsjF6IvEZa1RG/4w2H3zwQbVGx+iJ5Me1OAAfMw2OnkPCv1oJSenne+4zeIdrL4yiuICcKElxYZtv5o4ePYr9+/fjxhtvVOtQXI/hYjXXo0gKGZGUWQYX1dOLpPbu3Zuu/IxIimtaXD8jUXF9igv1jOxINMSBSf5INsSlZcuWKpqKnu6xb1bNYSTIGoS9e/fG0qVL1X20kWtcTZow2w3QuXNnlCpVSmWTqFKlCj7+mPyEdkwoqN+Q8LdGQlL6+Z9Jy5s+8cQTanHXaOmtSfHvTMrGqVN6xMFr+DeuO/GNGQmHb7K4MM7tDFyn4c/zbS0wZHBth28HjX1S0fdxoT8t+RmRFNemSBac4nGNjG/eGOlw7alfv35gIQQSK9/ucY2O00pOz6L3SXHBf9GiReDZO2Ly/PPPq/W577//XtnJaSTJ78ILL1TERRKLEBc3WrGW3kn9hoS/NRKS0sv/LPuyngvMjB6uu+46vbTzoDYkMhIVgB4sbuFBE11vkpCUXi6cwHJJnOpw+4A0exHgG8PbbruN+8V2R47AqP0H0vRCQEhKH39cFTkCk5ObKPn2SZq9CHBti9scOGNmoVV7exPp8SIgJBUvctbfxwflycaNG6vd1NLsRYDTaW5mjRwkLg1gm709ivR4ERCSihc5a+8rGImiCnHRt2HDhtZKF2l/Q4AL8twxD4BTbEkYr/EYEZLSwzlctB3KLAN8DS/NXgR++uknFUUdOHCAHfFlxUZ7exTpiSAgJJUIetbcmz1ykPial156Cf/617+skSpS0kVgwIABalsDAG73aC5Q6Y2AkFTy/cOtzpO4sZLrJOZDvclXzXsacI8YoyjumwrvMOfG2RXes9JbFglJJd+f3OpcmZsOu3fvnnxtPK4Bsyo8+uijtJJHj+p53FxPmCcklVw38jDrq0WLFlVRFI+uSLMXgYoVK6pDzAB4iHuevb2JdCsQEJKyAsX4ZTAtyF08Y8YcTtLsRWDOnDlo3lwtQTENTlV7exPpViEgJGUVkpmXw8Rqb+fMmVNFUVdddVXmJcgdmUKAWUqZiwoAEwrKlv5MoZe8i4Wkkoc9M7g92KFDB5XXSJq9CLz99tsqE2cgENgcOQJzyt4eRbpVCAhJWYVk5uQwyf9/eQvzgd98882Zu1uuzjQCrC4TyezJ4hbPZ1qA3JA0BISkkgM9Q6cO999/f2rO7eSo4Y9emYmTOdlTUlJ2B4NBHoHZ6w/LvWGlkJTzfiwVOQKTg/m769at67wGPuuRie0mTODpF/DtRF+fme96c4WknHchS3f3ql27tsq5Lc1eBLZv367ylx87duxoJIrabm+PIt1qBISkrEY0Y3mFIkdgCjFNbosWLZzt3Ye9sdYeawICGA9A7eKU5i4EhKSc9VdPVk8qX768SnsrzV4EmM+dR2BYDDW8w7wCC83Y26NItwMBISk7UE1bZo5IFHX16NGjVSEAafYiwNJdrBYDYDYACVvthds26UJStkH7N8EdWC2cxTw/++wz5M2b17mefdoT16JY9Ti8w5z131f6FAbXmy0k5ZwLWXCySf/+/fH0008716tPe2KlnZ49ObvGQgD3+BQGT5gtJOWcG/8EkHvnzp0oUqSIc736sKctW7YYFZpZnqoUgB99CINnTBaScsaVNQCsrlChgirxLc0+BJjZtGbNmkYHd4czb/IQtzQXIyAk5YzzLgRwOFeuXKEPP/wwwDdO0qxHgC8jxo4dawheDKCR9b2IRKcREJJyDnGmB7klV65cqmQ4KwZffPHFzvXu0Z62bdsGbtjkT245iLRnwj/7e9Rk35klJOWcyxlNsUIu3/JJsxiBlJSUPcFgcH2khh5/SvMIAkJSzjvysnA2zqsjC7peTMVZPQLpWoeg5QbNzQB2ONSfdOMwAkJSDgPug+6MaZZMt3zgbCdMFJJyAmV/9SEk5S9/226tkJTtEPuuAyEp37ncXoOFpOzF14/ShaT86HUbbRaSshFcn4oWkvKp4+0yW0jKLmT9K1dIyr++t8VyISlbYPW1UCEpX7vfeuOFpKzH1O8ShaT8PgIstl9IymJARVzqcRTZJyWDwRIEhKQsgVGEmBCQSEqGg6UICElZCqcICyMgJCXDwFIEhKQshVOECUnJGLAaASEpqxEVeRJJyRiwFAEhKUvhFGESSckYsBoBISmrERV5EknJGLAUASEpS+EUYRJJyRiwGgEhKasRFXkSSckYsBQBISlL4RRhEknJGLAaASEpqxEVeRJJyRiwFAEhKUvhFGESSckYsBoBISmrERV5EknJGLAUASEpS+EUYRJJyRiwGgEhKasRFXkSSckYsBQBISlL4RRhEknJGLAaASEpqxEVeasBcFzVECgEASsQEJKyAkWRYUagD4CcAPoKLIKAFQgISVmBosgwI9ATwEUAegksgoAVCAhJWYGiyDAj0B1AYQCPCyyCgBUICElZgaLIMCPQGUBxAF0EFkHACgSEpKxAUWSYEegI4DoAnQQWQcAKBISkrEBRZJgRaAegPID2AosgYAUCQlJWoCgyzAj8G0AVAK0FFkHACgSEpKxAUWSYEXgIwO0AHhZYBAErEBCSsgJFkWFGoCmA+gCaCSyCgBUICElZgaLIMCPQBAA/9wssgoAVCAhJWYGiyDAj0Cgy1btHYBEErEBASMoKFEWGGYF6kTd7nPJJEwQSRkBIKmEIRUAUAndGNnLeJcgIAlYgICRlBYoiw4xAbQA8v8c3fNIEgYQREJJKGEIREIVA9fD/mfiupiAjCFiBgJCUFSiKDDMC3Mg5FEBVgUUQsAIBISkrUBQZZgQqhVO1jAZwc+SXF4YzIvwlEAkC8SIgJBUvcnKfGQEmursPwKPhPFLHw6laJgOoGFmb6g2A2xFWCGSCQDwICEnFg5rcE43A3QDmAzgT3sS5GcCVkRTC2cNv+g4AuEwgEwTiRUBIKl7k5L5oBD4wrUMdi6QQ5jTvMQDTBS5BIF4EhKTiRU7ui0aAhReWAOAalNF2ASgqUAkCiSAgJJUIenJvNAJvAbgjMtVjFMX9UhMEJkEgEQT8TlKXA7g1PB35J4AsiQAp9yoEGDW1ApAtTFCc8nErgrTEEOA6348A3gfwc2Ki3Hm3X0nqBgBPA7jXnW4TrX2KwIJwlPpMeNx+5Sf7/UhSLcKFAmYaTm7UqBGuvfZaXHDBBX7yu9jqEgROnjyJzZs3Y9GiRWaNmVhwlktMSFhNv5EUT+hzcRdt27bFgAEDULBgwYRBFAGCgN0I7NmzB0899RRefPFFoytmmVhqd786yPcbSX3PPTy9e/fGoEGDdMBfdBAEMoVAnz598Nxzz/GeHZHSYZm6340X+4mkuBt6bNWqVfHBB9zSI00QcCcC1apVw4cffkjluQdtnDutiF1rP5HUSgC3zZ49G82aSfrt2IeIXKkbAnPmzEHz5s2p1ioATI3j6eYnktofPvh60W+//SbrUJ4e0t43jutThQoVoqE8cpTf6xb7iaRCdGYopH5IEwRcjUAgkProev4Z9ryBppEoJOXqx1KUN3yA8lUAACAASURBVCMgJOXN8SAk5U2/+tIqISlvul1Iypt+9aVVQlLedLuQlDf96kurhKS86XYhKW/61ZdWCUl50+1CUt70qy+tEpLyptuFpLzpV19aJSTlTbcLSXnTr760SkjKm263jKRWrVqF8ePH44033tAKqTZt2mDnzp146y0myDy7cfWmm27CunXrVMaHlStXokCBAihVqhQGDhyIHDlynKP/p59+iuXLl6Nv377n/J679AsXLoyxY8fi0Ud5BPJs4xnIW2+9Vcm97bbbzosFz5vxYLehX1o3sK9ixYopuWy7d+9WsocOHar0zZ49O/744w9ceKE5SzGQnu7nVSqdC2hnhQoVcOmll2LcuHFYuHBhvKLUfdH6pafvqVOn8Oyzz57XV0JSCblD25s9TVKLFy/G5MmTFTEZJPD5559jxIgRaNiwofr57rvvInfu3HjooYdQr149PPDAA6nOeuKJJ5A1a1b89NNP+PPPP0F5WbKcTVZK4qhVq5YiuPffZ4LIs40P8ptvvomXX345XZI6ceIE7rzzTqxevVodio2FpMqWLavIiY35lFq0aIHSpUuDGQDSIqmMdI93NBok1bJly3hFpIvt1VdfjWzZsqWJ9fz588/rKwoWkkrYLVoKSJekmBlh+PDhqFy5slL87rvvxmOPPaYersGDB6tvUT6wN998M4YNG6YeVEZS7du3x9SpUzFv3jx1X4cOHcAT6pdddpmSxwfqhx9+QKVKlZAnTx5s2LABefPmVQ91vnz58Pzzz+Odd95R9zLiYXRjEENmENy7dy/q1q2L0aNHKxmMhtioK/NlmR+0AwcO4F//+pey65prrjmnm9atW+Pnn39WxJMzZ87Uv5GkmByQurMPPmT8xieZ3HDDDWAER+yIx5kzZxSp0WYS0sMPP4ylS5eifv366u9PP/20sp0kVLx4cYUfcTIa7zWTFH8/c+ZM5QNGrulFUunpvnbtWkyYMEH1d9ddd6FLly5p6kly598YdRIzJkFs3LhxaiRF36bla5J9jx49lJ/379+vCPU///nP39wXrV96+ppvzMhXQlKZeULcc226JDVmzBjs2rULQ4YMUQOtXLly+P777/Hxxx+Duac4neE3HyMQEleRIkUyJClOVx588EEwkuEDyQiEUQ4jl0ceeQTVq1fHFVdcgRdeeAFz585VCHbr1g3XX389/v3vf6ciyr+99NJL5yDMg6V8aM2NkdKTTz6ppkP8aURSt99+u0qS9s9/MoU71ENIgpw4caLKBGEa6OohJmmSsPnA3nMP63mebTzQ2qBBA/VwExeSD4mMZM2/tWrV6m+RVJUqVdQ0iWRHoiJBM5Lig8+pDomcffBeyk6PpKgX9b7xxhvVNDQtkspId/ZJciImtC26GXqSHEeOHIm3334bx44dQ/ny5ZXvjeleeiR15MgRbNmyRUU//DfxjiapaP1I6OlhbeiXka94jZCUe4gnM5qmS1K///67ioA42EgK33zzjRp0jEQOHTqUmiBvypQp+Oqrr1RUkVEkRZJipLJs2TKl31VXXaUe0EsuuURFEhdffDGOHz+OadOm4fLLWQvibKPcTp06ZcYm9e3+448/qgiKpGiQ1MGDB0GS2rhx4zny/vrrL0W2NWvWROfOnWPqyyAprsXx4f3uu+8UyXXv3l1FViQaPnicInF6xuu//PJLMKVI0aJFzyGpZ555BitWnC1mzPu5PtauXbtzSMq8JsU/MFpjoreM1qTSM4S49+rVy8i/hKNHj6apJ0mUf+PaHRttIkbnI6mKFSuqLK+MsrmGReI1k39MAKdzUUa+EpJKBFl9781wTYphOx8EfnvyQeLDmBZJff3112qNJy2S4rSHA5sPGRd6lyxRmYoVSTEqY0RlJimSI79R02uxRFJ80EkIbPwm3759O5o0aYI6deqoSIdky4ePpMUIkI1RHe+hDbE0RhmMdvggM48Ro0SmsiUpkvD4QG/dulWRF0mLjYvdxDKapMxrUumRVPR0z6xjetO9jEjK3CejyLT0zCxJGb4mHsFgUK25zZgxQxE0o7aUlJRYoP3bNbH6SkgqLni1vylDknrllVfUg8to4bPPPlPG8O0VH0YOQA4KrjfwYWUkxAecC7acgvAekgDXYfr16xcTSfFbl+tejHQom1ENBz6nNfE2cyTFqIbrQHfccQc4nSXhMYLhQ05iqV27tuovlmYmKUaHfOgpm1GbQVIk73379qlIhBEpp1avvvqqihRJmtQteuE8GSRFEk1LTy7w8+0lCeb06dO47rrrzpnucd0pLV9zasxoq0aNGuo+Tq1JgtFvH2PBmdfE6ishqVgRddd1GZLU4cOH1bc+3yD17Mmalmcboys+YFzQ5joSp1UkLZLUa6+9phbLN23ahIsuukhFKlz/4EA9XyRFUho1apRaqOU0hutgaS24ZgZiM0lxivTJJ58oUmKERT1JMFysZpRFMon1295MUlwwJ05cV+LDaZAUF+G5bYAYlSlTBvnz58frr7+uFs0ZpXItjdimF0nxoaMPOMWxM5Li2mNaejLqpW6cOlN3Eg59ybUzrq3RlrR8TbuJAa/jdJ6RtHldMTP+M6LhWHwlJJVZZN1xvWVbENxhrmjpZQSEpLzpXSEpb/rVl1YJSXnT7UJS3vSrL60SkvKm24WkvOlXX1olJOVNtwtJedOvvrRKSMqbbheS8qZffWmVkJQ33S4k5U2/+tIqISlvul1Iypt+9aVVQlLedLuQlDf96kurhKS86XYhKW/61ZdWCUl50+37AVzEIx7MFyRNEHArAjzEzGNG4ew7B8LH/fK71Y5Y9fZTmfWVPJw/e/ZslWZEmiDgVgSYAofZFwCsAlDbrXbEqrefSIrJucfydD6zG0gTBNyKAHOfMaMEgMcAjHOrHbHq7SeSIibfA7iSeY544l2aIOA2BJhJgpk5AOwIZ1Yu7jb949HXbyRVD4DKRMdsikxXIutT8QwbucdpBLgOxdxmTE8cafXDqfGXOq1HMvrzG0kR4xbM7W+AzZS91157rUq8L00Q0A0BpmPevHkzFi1aZFbtIQCzdNPVLn38SFLE8oZwWbqnAdxrF7AiVxCwAYEF4RoMz4TH7Vc2yNZWpF9JynAIqyCwCiXLqZwtMhd7I3Zq71UGLaNrrLo/lj7Susb4Xbz3p2d2jcgf1kRdkGh/id5vqJMo7rGMkFj6iEUOrzkTrgvxIwAWPPw51pu8dJ3fScpLvtTFlv4RRYyfuuglergUASEplzpOY7WFpDR2jhtVE5Jyo9f01llISm//uE47ISnXuUx7hYWktHeRuxQUknKXv9ygrZCUG7zkIh2FpFzkLJeoKiTlEke5RU0hKbd4yj16Ckm5x1eu0FRIyhVucpWSQlKucpf+ygpJ6e8jt2koJOU2j2mur5CU5g5yoXpCUi50ms4qC0np7B136iYk5U6/aau1kJS2rnGtYkJSrnWdnooLSenpFzdrJSTlZu9pqLuQlIZOcblKQlIud6Bu6gtJ6eYR9+sjJOV+H2plgZCUVu7whDJCUp5woz5GCEnp4wuvaCIk5RVPamKHkJQmjvCQGkJSHnKmDqYISengBW/pICTlLX8m3RohqaS7wHMKCEl5zqXJNUhIKrn4e7F3ISkvejWJNglJJRF8j3YtJOVRxybLLCGpZCHv3X6FpLzr26RYJiSVFNg93enqiHU1PW2lGOcYAkJSjkHtm44kkvKNq50xVEjKGZz91IuQlJ+87YCtQlIOgOyzLoSkfOZwu80VkrIbYf/JF5Lyn89ttVhIylZ4fSlcSMqXbrfPaCEp+7D1q2QhKb963ia7haRsAtbHYoWkfOx8O0wXkrIDVX/LFJLyt/8tt15IynJIfS9QSMr3Q8BaAISkrMVTpAFCUjIKLEVASMpSOEVYGAEhKRkGliIgJGUpnCJMSErGgNUICElZjajIk0hKxoClCAhJWQqnCJNISsaA1QgISVmNqMiTSErGgKUICElZCqdvhRUFsDNifTRJmf/mW4DE8PgREJKKHzu58ywCuQFsBPAzgL4A6kaAWQ5gIIDLAVQAcFgAEwTiQUBIKh7U5J5oBAYD6AbgOID9kT/mB5ADwEgATwpkgkC8CAhJxYuc3GdGgNHUXgDZI0TFccV/nwDwD4miZLAkgoCQVCLoyb1mBBhNdQeQLfLLU+Gp4AiJomSQJIqAkFSiCMr9BgLmaIq/kyhKxoYlCAhJWQKjCIkgYERT/K9EUTIsLEFASMoSGEVIBAFGU/si/y4ga1EyLqxAQEgqYxTzALgUwGUAigEoYgXoHpdRP2LfEo/bKeZZj8CXALYD2AbgmCFeSCptoJsAMD7Wu0IkCgKCQEYIfAPg/vBnMy8SkjoXqqcj5HSd+dfXXXcdbrzxRpQqVUqGliAgCNiIwO+//465c+eeOnDgwFoAtwtJ/Q/sSgAGGKDUrl0bjRs3xrXXXovy5csjd24utUgTBAQBuxF45pln0L+/Olk1CcAjQlJnEe+akpIyKBgM5ixUqBB69eqFLl262O0LkS8ICAJRCHTr1g2jRo0yflsOwGdCUsALABQjtWnTRhFU8eLFZfAIAoKAwwh07NgREydONHqtA2CF8R+/rknlCr+1mwqgab58+TB16lTce++9DrtFuhMEBAEiUK9ePSxbtswAg+c8h5iR8SNJ/RPAiwBqlyxZUhHUrbfeKqNFEBAEkoAAX0h99dVXRs/NAMyNVsNvJFUxQlA33nLLLYqgrrnmmiS4RroUBPyNwMmTJ1GwYEEcPHjQAKIKgI/TQsVPJHV3IBCYFgqFCjZs2FARVIEC3BQtTRAQBJxE4JdffsHllzPNWGrjhmkjaeLfVPELSf0rsgaVwgXyF1/kbE+aICAIOI3ARx99hKpVqxrd8ggVU/lk2PxAUj2Nhbgnn3wSzz333Pkwkb8LAoKADQjMnTsXzZpx2Um1TwGUj6Ubr5MUT+IzYyRGjhyJrl27xoKJXCMICAIWIzB06FC1xSfSFgK4J9YuvExSM8OHFVsQiJkzZ6JFC/VPaYKAIOAwAp06dcKECROMXrk3MVPRghdJirm15wC44x//+AdmzZqFOnW4N0yaICAIOI1A/fr1sXTpUqNbkhNJKlPNayRVNpxWZRqAsuXKlVNv8MqW5a+kCQKCgNMIlClTBl988YXRLad3nOZlunmJpO6MvMErescddyiCuvRSvtmUJggIAk4i8Mcff4AbpQ8cOGB0ywVyLpTH1bxCUg9HCCob155IUNmzs1iJNEFAEHASge+++868QZosVRLAH4no4AWSehzAcILAt3d8iydNEBAEnEfggw8+MB8x2wLgaiu0cDtJDQPwBIHg/ifug5ImCAgCziPw6quvomnTpkbHHwCw7ECsm0lqOoCWRIU7yLmTXJogIAg4j8CwYcPQsyf3TKvGA8KpOzat0MatJMW8DnUJwKJFi8CzeNIEAUHAeQQeffRRjB8/3uiYKVYsn864jaRYrWUxgJt4OHjx4sVgNgNpgoAg4DwCDA7efPNNo2Om+mXKX8ubm0iqcngh7lUAl3MPFOfAfM0pTRAQBJxF4MiRI+qQ8Oeff250zFnNW3Zp4RaSejBc9+7l8EHhHI0aNcL06dORN29euzARuYKAIJAOAj/++KMqTrJ//35e8ScABg+q9JRdzQ0kxa30al/BI488Yj4DZBcmIlcQEATSQGDjxo2oWJF5I1VjEc8y4bfrR+wGS3eSGgxAHZ3u168fWO4mM43haPPmzfHNN6w16Fz75JNP8PDDD2Pz5sx/wTz//PPYtWsXatasiUmTJplzP9tqQLKwolHVq1fH2rUss5Z+O336NLJly/a3C2644Qa89NJLceOdVo/EgilFzP7jKX5mkRw8eLAqGPDKK69g27Zt4OkG7s1jlkm+4cqfP7/5TZetPsuscI6nFStWgNO1Dh06gLOSWNvy5ctx9913G5czgyYzaTrSdCYpnsH7N1EYO3Ys+BYhsy2ZD15mdTWu52lxg6QmT56M119/PU1R69evR6VKLBdoTUsmVnwJsm8f85+dn6SY1dHu407RJMXzZ9zism7dOvWFV7duXXVolpWFXnjhBXz99dfKTyRSRhovv/wySpcuna4xVvsusyPgjTfewPvvv690j6XNmDEDrVq1Mi5dBKBxLPdZdY2uJMVXBvVpJBfIH3jgAbVQ9/jjj6ey/5IlSzB8+HAF9nvvvYe+ffuqb9qcOXOqbzseLDY/eP/973/Rrl07fPkly80D5v/zd23btlVVKyg3EAioozUsUsgk8XyLwb7YOFCpB6+55JJL1B6tiy+++Bx/mCOpY8eO4amnnsKWLVtw5swZRSzUNUuWLLjssstYrdWcqVCtt5kjKQ6QtBoLl6YXqbkJq9atWyuba9WqpX4Sp7R8aURSaZGUGe8RI0YoH82fP1/Bxm9/kgrThWTkO0ZHjIhIPDfddBP4IBv4cvzdc889ahzu2bMHe/fuxfXXX6/kcwrEqPnbb79V/589e7Z64/Xaa6+l+4xm5DvzTbGOy1ivo2yOJ45Hpi9iBHu+xnHfo0cP4zKmtG13vnus/rtuJJUlXEX4o/CbAhUirFq1Sg1eNk6Dtm/frqZAbAxXr776ajz44IPgaWtuyefbPv593Lhx6tstVpLitZUrV1YOZAh83333qW9MDupTp04puVu3bkVKSooanO+8844iwSlTpuDdd99NfSAM55gfmgULFqhvWWPQcuPbXXfdBU5TEmkZDXQ3YcUIqlixYmoK8ttvv6Xry1hJil8E9A3HwOHDh/H0008rIjGIJS3fcdpWrVo1dWKfXzwknU2bNimSOnHiBJjyhwvGnMqZG4lp0KBBKFKkCOhXNh6u/ec//6kO12bNmjXTXzDmG2Idl8QwlvHL4rdsPF/HL1pTCpU09ezcubOaxUQaywpnbr0lkQFuulcnkroSwMow2V/ByGT16tXnPMg///wzbr75ZhVlhEIhFC1aFJ999hneeustBbbxzXn8+HEVTfHtw08//ZS6JpVRJMXBcNttt6mHhBES17527typSIiNxMS8VLxu3rx5an8WGx8s1u1jtGQekGaSWrlypVrw5zcSc+swgoq3McobM2aMup32EA82Rgnm9QU3YWUmKUZS6fmSpe7TWpOi3X369DlnTYpfLlweYEUSrldVqFBB+S8933F6xmicUS0biYznQElS/DAa++GHH85xW/fu3VXkxaiVcg0C4EWMkOn3UqVKpd4Tq++iSSqWccmxF8t1H374oYr4+AwxxxrHZVqNRM86lMY4B8AaATzhkZSmC0nVDOc7XhI+KPx//BbkIp3Z6QYyfCi5ZsPohouUa9asUd9gjHI4PTMaiYNE8ddff8VMUgznKYdtwIAB6l4ulrKxNhgHO6eWLAPNCM7cOCU1T/miF865WMn1pQ0bNqhvbE4t8uTJk5DDzzdlcAtWZpLKyJeMTkhS55vuGaDyoeUXAiNdNhJKer7jlH3Hjh2pX0pm/3388ceK8D799O+ZRvhFyBMPjNZIYsYXFSN7+pjRTVrtfL4z7uGXYizjMkeOHDFdx2ns+Rq/qDk9ZgAQeXPHZZfV57vPzr/rQFJckeMeKLX2w+lRetEGSSMYDKoQnIutHDz89mX1U36bsTGqyZUrlwr1OT003u5x4HHxj45n4zcda89zPh/rYGCYbP42Ts8x6b3d41SA01NOYRM9DH2+ge4WrKIjqfR8yQcxVpLim8InnnhCjRNOV1j8NTqSMvuOJBVrJMVpH+WaoySOV0bexhcrIyl+MUV/mRl9ns93ySIprr/yrTLHafhcLEPH2gB22ElAschONkk9HVaSc1089thjqVOZ9BQn6XDxmwTEUJRrAbt371brGPzG46In1yK46MlBZ16T4ppEiRIl1Dce1xZ69+6tphaZISmunTCq4rcz15QYwnOaGb24bSYp/p3T0yZNmiizOM/nAOcULZF2vjdEbsGKvuQXztGjR/H777+n68tY16Q4xaOPuIDNf/OLieOAkXF6vuPfuZWAY4FrUi1btlSROKd6XD7g9oJff/0VnHJy3PHLkVNKvmUkqXJqyAV/LhUwuiJJHTp0KN01qfP5LhkkxeeF0WekrY9sMTiTyBi16t5kkhQXfNrSEIb5/OaLpTGE/r//+z8VCRmNC+zcR8UBxbcvfLvCozPRr9X5GpnheY0aNdT6EBeY+e0RayTFcJl1w/i2g4voHKRca4p+JW4mqe+//15dw0FLQr3wwgsVsTEySOvtXiwYxHqNzlixOOScOXPUmk6DBg1UBMw3c/wyScuXsZIUv3xIeMbrdb615ZcSI8uMfMc3d/zy4Rcdvwg5PWTkzMb1Gf79/vvvV/+n/xmh8cuRpMa3yYyO2GJ5uxer/2Idl4lO9/hShxF+pHHZpUGsOjpxXbJIirmO1U4yTtf4zSVNENAVAa5HtW/fXkVP6b2xo+4kUi7Sc0xntE9KJzs58+AsJtJeAtBaJ/2oSzJIilsMVOoChspcpJMmCOiOAKOlP//8U0VN6TXdd5xH680F/2effdb4tS1pVqzwq5Mk9X/h6InHpktQcb7p4reONEFAEHAegY4dO6o3kJHGArqjnNcith6dIilO2NeF3wTn4foAN8rxlbI0QUAQcBYBro3yZQLXZsPnYo9H9kAxBZK2zQmSugvAciLAhUZuKOPCtzRBQBBwFgHurOcCeWTP18/hzedcLWfwoHWzm6Q6AFAxJd/gmHawag2KKCcIeA0BbtHhPsTIQe5PuC0xfA5vlxvstJOkUtOscE8Q3yJIEwQEAecRYHBgOjbFWU1qzhXntcl8j3aR1BwAqr4N96eYTlFnXkO5QxAQBOJGgMfFuFcs0phSIzXnStxCHb7RDpJ6P5zAoBrt4IFN0yYxh02T7gQBfyPA7RLc3BppzDWUmnPFTchYTVLcoquOfvMwLg/TShMEBAHnEeC5VB6ojjQe53jeeS2s6dEqkmLWt20ALqJaTAeR3uFKa9QWKYKAIJAWAjz8zONfPFAN4BQAVs19xc1oWUFS5cJZNDcRhIsuukjlfY7OVOlmgER3QcAtCPAQNAmK+bDC52J3Rgjqbbfon56eiZIUcx2/QeE8q2Sqw+V2XER/QcBVCDD/EwkqsgeKyaB4Bk8lhXJ7S4Sk/mNspTdyg7sdDNFfEHAjAsze0KJFC5VBgolFATQLZwVShfG80OIlKa7IkaTAM0CmWvBewERsEARcgwDXnh566CFDXy5Epf7HNUacR9F4SIrTO1XSZsiQIdrWGPOKg8QOQSA9BPj2jm/xIo0FdLt7Ea3MkhQXyLlQrhKWNW2q9mtKEwQEAYcR4P4nU9oYFtA9m5Dfgy0zJMUJbwFiwEPCVao4VsDUg7CLSYJA/AhwB3mk8Egw8gZP1QjwaouFpIqGgfjVAIDlkpj2VpogIAg4iwAPB/MNHs/iBQKBPaFQiG/wljmrhfO9nY+kmEGTmTRVfTnmD7/ggguc11J6FAR8jgA3SJOgmM0AAMtw80DeBj/AkhFJccGJB4VVZRSjPLkfQBEbBQGdEOARMxIUN0pHCuiSoH7USUc7dUmPpLgQp5I5s3rr+cox26mgyBYE/IwA61CSoA4ePEgYWGKZx1yO+gmTtEjq9nChBFX2lWWYWTFYmiAgCDiLAEuhcYuPqTL3aGNvorOaJL+3aJIqG06iqepJs+Aha49JEwQEAWcRGD16tCIoljxPSUk5FgwG++hcKMFudKJJiql+O/Tv31/Vt5cmCAgC9iPAKs4sTsKKyQsXLjQXvl0B4CkArCjs2xZNUivy5ctXvVmzZtlYmVWaICAI2IcAS7PzhdQ333wT3Ql/MS9cF/MZ+3p3j+RokmLpqdfDAF3nHhNEU0HAMwiQmIyPZ4xK1JC0Fs5zhkval4wU8bwx0Q7kft8hUD1i8VrfWZ55g1mt5adwWpVfIhum/8y8CO/fcb7NnN5HQCy0GoH+EYHGT6vlizyfISAk5TOHO2CukJQDIPupCyEpP3nbGVuFpJzB2Te9CEn5xtWOGSok5RjU/uhISMoffnbSSiEpJ9H2QV9CUj5wssMmCkk5DLjXuxOS8rqHnbdPSMp5zD3do5CUp92bFOOEpJICu3c7FZLyrm+TZZmQVLKQ92i/QlIedWwSzRKSSiL4XuxaSMqLXk2uTUJSycXfc70LSXnOpUk3SEgq6S7wlgJCUt7ypw7WCEnp4AUP6SAk5SFnamLK6ogeNTXRR9RwOQJCUi53oIbqSySloVPcrJKQlJu9p6fuQlJ6+sW1WglJudZ12iouJKWta9ypmJCUO/2ms9ZCUjp7x4W6CUm50GmaqywkpbmD3KaekJTbPKanvkUB7IyoFk1S5r/pqb1opTUCQlJau8cVyuUGsBHAzwD6Aqgb0Xo5gIEALgdQAcBhV1gjSmqHgJCUdi5xpUKDAXQDcBzA/ogF+QHkAMAy2E+60ipRWgsEhKS0cIPrlWA0tRdA9ghRcVzx3ycA/EOiKNf7N6kGCEklFX5Pdc5oqjuAbBGrTgEYIVGUp3ycFGOEpJICuyc7NUdTNFCiKE+62XmjhKScx9zLPRrRFG2UKMrLnnbQNiEpB8H2QVeMpvZF7Cwga1E+8LgDJgpJOQCyhl0UAVA46mPVWGgQsfdNi+wOAtidxsci8SJGdwSsGpi62+ln/fJG9i5x/1KtCDG53e+hCGm9B4D7sfg55Gcne9l2tw9WL/smEdtKmoipTrSgggULonDhwqmfIkWKIGvWrIn0Z9u9p0+fxu7du9Vn165d6ueePXvS6u9dE2Fts00hEew4AkJSjkNua4elwvuUegFoZe6ldu3aqFu3rvqUKFECWbJksVUJu4WfOXMG27dvx/Lly9Vn5cqV0V1OD28kHQJgi926iHz7ERCSsh9jJ3rg+lJPAF2Mzpo2bZpKTPnzc/O3d9v+/ftTCWvu3LlmQ8dEyIprWtJcioCQlEsdZ1L72UAg0CsUCqlNQKQsAAAACnhJREFUlK1bt0avXr1UxOTHxghryJAhmDZtmjI/EAicCoVCjKr6+REPL9gsJOVeL14FgNOayjShSZMm6NmzJ8qXL+9eiyzU/NNPP1VkNW/ePEPqusg0eKuF3YgoBxAQknIAZBu6qBcIBGaEQqH8pUuXxqhRo1CzptQ9SAvn1atXo2vXrvjiiy8YVe0PhUItASy1wSci0iYEhKRsAtZGscw2wN3cKnqaPn06cuXKZWN37hd99OhRtGrVyhxV8YwhszNIcwECQlIucJJJxUnh/UHt+f8+ffpg4ECma5IWKwLE7LnnnjMunwygQ6z3ynXJQ0BIKnnYZ7bnAZGkcip6atmSsxZpmUVgxowZKqqKNLL8U5mVIdc7i4CQlLN4x9tbWwBTePPChQvRqFGjeOXIfQAWLVqExo0bG1gQ26kCjL4ICEnp6xtDM+4Yf4f/GT16NDp37qy/xi7QcMyYMejSJXVbGTFe4QK1famikJTebi8VCAQ+DIVCBbp164YRI9R6uTSLEOjevTtGjhzJt377QqFQVdmhbhGwFosRkrIYUIvFrQFQ/d5778X8+fMtFi3iiMB9992HBQsW8J9rAdQQVPRDQEhKP58YGrUAMPPSSy9V59SyZ2fKcGlWI3DixAm1O//XX3+l6IcAzLK6D5GXGAJCUonhZ9vdKSkpW4PBYMlJkyahfXu160CaTQhMnjwZHTp0QEpKyrZgMMid/NI0QkBISiNnmFR5AsCwChUqYMOGDXpq6DGtKlasiI0bWT4QPQAM95h5rjZHSEo/912UkpLyUzAYzM1X5Q0bNtRPQw9qtHjxYrW1IyUl5XAwGCwWzihxwINmutIkISn93DaU3+b169fHm29alYFXPyN11KhBgwZYsmQJVRsWSX2jo5q+00lISj+Xfwvgah6MrVFDXjY56Z41a9YYB7W/A3CNk31LX+kjICSl1+goA+AzpvZlqlxpziPAVMpMUQygLIDPnddAeoxGQEhKrzHBxGzPtGvXDnzjJM15BPgmdcoUdQKJvuB5SWlJRkBIKskOiOqer5du4rpIvXr19NLMJ9osXboUXA8E8AmACj4xW2szhaT0cQ8rvGzNnTs3/vzzT3208qEmefLkweHDh2k5fbLdhxBoZbKQlD7uaM3T+M2aNcPs2bP10cqHmjRv3hxz5syh5W0AnE2WLi1pCAhJJQ36v3XMvEbP6prM7qOPPsLYsWNx8OBBsDrLlVdeiTZt2oDlstiqV6+OtWt5/M39rW/fvhg0aBANkXUpDdwpJKWBEyIqTGSmyPHjx6Njx476aBXRhKS0YsUKFC9eHMFgUCXeY6qTH374AQUKFFCfffv2aad3PApNmDABnTp14q3MhPpIPDLkHusQEJKyDstEJS0G0EDHpHY8hMs86izCmVbBB5bRImnVqlVL/dyyZQsYjWTLlg05c+bE4MGDUbZsWbCCC99cVq5cGd999x0OHTqkUiDXqfO3IsuJYpnQ/aakeNxNK1v+E0Iz8ZuFpBLH0CoJ6s3e+vXrwXNkurVx48ahR48eaoMpSYUpTpihgY0RVLFixXDkyBH89ttvKFOmDD744AOULFkSPCDNe7/++mt8/vnniqC4abJSpUqYNWsWnnrqKezYsYM5nbQxmeclqZ+84dPDJfqMDD3wSKYWO8Mpgov88ssvqQ9/MpVJq+89e/ao9MV8Tc/DuEzBy+npgQMHUkmKkRT/buS/On78uIqmuI71008/qUiM/yYpnTx5UqWg2bt3r5ou6tKYtuWyyy6jOtxRW1QXvfyqh5CUPp4PsuDumTNneMhVH63S0YTbJKpUqaKqrzA6MiKpYcOGYevWrZg69X9pw/Ply4dPPvkEf/31F+6//371d6PxbyQ8Rl26NK65ZcmSheqEwi8z9HeGLsDZpIeQlE3AxiFW20jq1KlTKincFVdccY5ZdevWBbOGMlODQVKMpJYtW5Za4+7YsWNqPYv7jpi87/bbb1eRExvlXnDBBeqNYd68eeOAzJ5bJJKyB9d4pQpJxYuc9fdpuybFNSMS0cSJE1G1KlOBQ5FQ27ZtsW7dOjU95XSNRTh///13tSb18ccfqzeBXI9644038N5776k1KUZfLCvFNS2uSQ0fPlxVF9apyZqUTt4AhKT08Ye2b/cI0apVq9R5Qq6ZZc2aFfnz58fjjz+OatWqKQSZ5oRRE4tFMFLq168fuB7FdSymnClXrpwiqRYtWiiC4p4qLrQPGTJEvRXUqcnbPZ28ISSlkze03idlBVAkKe6o37x5sxXibJMh+6RsgzYuwRJJxQWbLTdpvePcCovdQlKy49wKb1snQ0jKOiwTlSRn9xJF0KL75eyeRUBaJEZIyiIgLRBTAsA2yYJgAZIJijBlQWDlmG0JipPbE0RASCpBAC2+XfJJWQxoZsVJPqnMImb/9UJS9mOcmR7UupRk5swMZNZea8rM+TR9Ya10kRYPAkJS8aBm3z2S49w+bGOSLDnOY4LJ0YuEpByFO6bOpFpMTDBZf5FUi7EeUyskCklZgaK1MqTunrV4xixN6u7FDJWjFwpJOQp3TJ1JBeOYYLL2IqlgbC2eVkoTkrISTetkPcEquhUqVADPkUmzHwHm8GI2BlaPBjDc/h6lh1gREJKKFSmHr0tJSdkaDAZLMmkc3zhJsw8Bnkns0KEDU+RsCwaD3BslTSMEhKQ0ckaUKi0AzGSGAaY4YXI4adYjwNTIJUqUUKloADwEYJb1vYjERBAQkkoEPfvvXcNCLMzZZGS6tL9Lf/XAjAwLFiyg0Sx1U8Nf1rvDWiEpvf1UKhAIfBgKhQp069ZNpUGRZh0C3bt3x8iRI5nKeF8oFGKirC3WSRdJViEgJGUVkvbJuR3AuxQ/evRodO7c2b6efCR5zJgxqiRXpN1hYOwjCFxjqpCUO1zFSrovUlUdS165A8L/aWlKasdftjOwdZsdftFXSMo9nh4AoC/VZR7xli1bukdzjTRl6uJWrVoZGg0EwPOS0jRGQEhKY+ekoRor6qr9CL179zZKgbvLgiRqa0pmRy0ms2J0EtWRrmNEQEgqRqA0uqwbALWC3qRJExVVsRqLtPQRYIEIRk8sHhFp3QGMFMzcgYCQlDv8FK1lvUAgMCMUCuUvXbo0Ro0alWb5c3eaZq3Wq1evRteuXVVFmkAgsD8UCnGevNTaXkSanQgISdmJrr2yuTN6OoDKRlTVq1cvVZVFGrBp0yYMHTrUHD2tA8DFqP9VJhWgXIGAkJQr3JShks8GAoFeoVAoG69q3bo1SFbcRe3Hxt35LJM1bdo0ZX4gEDgVCoWGAOjnRzy8YLOQlBe8CBQG0AtA6iaqpk2bghWG+WGNPC+3/fv3Y/ny5eozd+5cs6mjATD1zW4v2+9124SkvOXhUhGySn3HTvNq166dSliMsLJkyeJqq8+cOaPOMxrEtHLlymh7OA1m9CQ7yF3t6bPKC0l5wIlpmFASQN3Ip0703wsWLIjChQuDqXL5kx9WJdaxnT59Grt27cLu3btTP6yKnEbjrvzlkY9UeNHRmXHqJCQVJ3Auui2vibBYz5xTQ7f7PRSZwr1nIqZDLvKJqJoJBP4f/JClboaflx4AAAAASUVORK5CYII=;" vertex="1" parent="1">
                    <mxGeometry x="277" y="329" width="297" height="442" as="geometry"/>
                </mxCell>
            </root>
        </mxGraphModel>
    </diagram>
</mxfile>